<svg width="106" height="91" viewBox="0 0 106 91" fill="none" xmlns="http://www.w3.org/2000/svg">
<path d="M6.15273 33.3418L7.85455 14.0982L12.3055 19.0073L11.1927 32.0982L7.85455 35.1745L6.15273 33.3418ZM33.12 38.9055L31.4182 58.0836L27.0327 53.1745L28.1455 40.0836L31.4836 37.0073L33.12 38.9055ZM28.8655 32.0982L29.9782 19.0073L35.28 14.0982L33.5782 33.3418L31.68 35.1745L28.8655 32.0982ZM28.4073 33.6691L30.6982 36.0909L27.9491 38.5127H10.8655L8.70545 36.0909L11.3236 33.6691H28.4073ZM68.8751 33.3418L66.9769 35.1745L64.1623 32.0982L65.2751 19.0073L70.5769 14.0982L68.8751 33.3418ZM69.726 13.1818L64.4896 18.0909H48.5841L44.1332 13.1818H69.726ZM46.4896 32.0982L43.1514 35.1745L41.4496 33.3418L43.1514 14.0982L47.6023 19.0073L46.4896 32.0982ZM66.7151 58.0836L62.3296 53.1745L63.4423 40.0836L66.7805 37.0073L68.4169 38.9055L66.7151 58.0836ZM65.7332 59H40.1405L45.4423 54.0909H61.3478L65.7332 59ZM44.6569 53.1745L39.2896 58.0836L40.9914 38.9055L42.9551 37.0073L45.7696 40.0836L44.6569 53.1745ZM76.7465 33.3418L78.4483 14.0982L82.8992 19.0073L81.7865 32.0982L78.4483 35.1745L76.7465 33.3418ZM103.714 38.9055L102.012 58.0836L97.6265 53.1745L98.7392 40.0836L102.077 37.0073L103.714 38.9055ZM99.4592 32.0982L100.572 19.0073L105.874 14.0982L104.172 33.3418L102.274 35.1745L99.4592 32.0982ZM99.001 33.6691L101.292 36.0909L98.5428 38.5127H81.4592L79.2992 36.0909L81.9174 33.6691H99.001Z" fill="#01F1C7"/>
<path d="M10.9091 81.7455L10.5818 85.6364L9.09091 87L9.58182 81.4182L10.1273 80.8909L10.9091 81.7455ZM9.70909 79.8727L10.2 74.2727L11.4545 75.6364L11.1091 79.5273L10.1818 80.3818L9.70909 79.8727ZM17.2 81.4182L16.7091 87L15.4909 85.6364L15.8182 81.7455L16.7455 80.8909L17.2 81.4182ZM16.0182 79.5273L16.3636 75.6364L17.8182 74.2727L17.3273 79.8727L16.8 80.3818L16.0182 79.5273ZM11.6727 76.6182L11.7636 75.6364H12.7273L15.7455 78.9455L15.6545 79.9091H14.6909L11.6727 76.6182ZM27.132 79.8727L26.6047 80.3818L25.8229 79.5273L26.132 75.8909L26.8774 75.2L27.4774 75.8909L27.132 79.8727ZM26.6411 74.9455L25.9138 75.6364H21.4956L20.8774 74.9455L21.6047 74.2727H26.0229L26.6411 74.9455ZM26.6592 85.3818L25.9138 86.0727L25.3138 85.3818L25.6229 81.7455L26.5501 80.8909L27.0047 81.4182L26.6592 85.3818ZM20.9138 79.5273L19.9865 80.3818L19.5138 79.8727L19.8592 75.8909L20.6047 75.2L21.2229 75.8909L20.9138 79.5273ZM19.0411 85.3818L19.6411 86.0727L20.4047 85.3818L20.7138 81.7455L19.932 80.8909L19.3865 81.4182L19.0411 85.3818ZM20.4956 87L19.8774 86.3273L20.6229 85.6364H25.0411L25.6411 86.3273L24.9138 87H20.4956ZM37.4276 74.2727L35.973 75.6364H31.0639L29.8094 74.2727H37.4276ZM33.2457 86.3273L32.5003 87L31.8821 86.3273L32.2276 82.4182L33.1548 81.5636L33.6276 82.0727L33.2457 86.3273ZM33.7548 80.5636L33.2094 81.0545L32.4276 80.2182L32.7366 76.5636L33.4639 75.8909L34.1003 76.5636L33.7548 80.5636ZM51.9588 74.2727L50.5043 75.6364H45.8315L44.5952 74.2727H51.9588ZM45.0497 81.7455L44.7406 85.3818L43.2497 86.7455L43.7224 81.4182L44.2679 80.8909L45.0497 81.7455ZM43.8497 79.8727L44.3224 74.5273L45.5588 75.8909L45.2497 79.5273L44.3224 80.3818L43.8497 79.8727ZM50.0315 79.9636L50.6679 80.6364L49.9043 81.3091H45.1588L44.5588 80.6364L45.2861 79.9636H50.0315ZM61.2726 79.8727L60.7453 80.3818L59.9635 79.5273L60.2726 75.8909L61.018 75.2L61.618 75.8909L61.2726 79.8727ZM60.7817 74.9455L60.0544 75.6364H55.6362L55.018 74.9455L55.7453 74.2727H60.1635L60.7817 74.9455ZM60.7999 85.3818L60.0544 86.0727L59.4544 85.3818L59.7635 81.7455L60.6908 80.8909L61.1453 81.4182L60.7999 85.3818ZM55.0544 79.5273L54.1271 80.3818L53.6544 79.8727L53.9999 75.8909L54.7453 75.2L55.3635 75.8909L55.0544 79.5273ZM53.1817 85.3818L53.7817 86.0727L54.5453 85.3818L54.8544 81.7455L54.0726 80.8909L53.5271 81.4182L53.1817 85.3818ZM54.6362 87L54.018 86.3273L54.7635 85.6364H59.1817L59.7817 86.3273L59.0544 87H54.6362ZM70.6045 85.3818L69.8591 86.0727L69.2591 85.3818L69.5682 81.7455L70.4955 80.8909L70.95 81.4182L70.6045 85.3818ZM62.9864 85.3818L63.5864 86.0727L64.35 85.3818L64.6591 81.7455L63.8773 80.8909L63.3318 81.4182L62.9864 85.3818ZM64.4409 87L63.8227 86.3273L64.5682 85.6364H68.9864L69.5864 86.3273L68.8591 87H64.4409ZM63.4591 79.8727L63.95 74.2727L65.2045 75.6364L64.8591 79.5273L63.9318 80.3818L63.4591 79.8727ZM69.7682 79.5273L70.1136 75.6364L71.5682 74.2727L71.0773 79.8727L70.55 80.3818L69.7682 79.5273ZM74.4638 81.7455L74.1365 85.6364L72.6456 87L73.1365 81.4182L73.682 80.8909L74.4638 81.7455ZM73.2638 79.8727L73.7547 74.2727L75.0092 75.6364L74.6638 79.5273L73.7365 80.3818L73.2638 79.8727ZM80.7547 81.4182L80.2638 87L79.0456 85.6364L79.3729 81.7455L80.3001 80.8909L80.7547 81.4182ZM79.5729 79.5273L79.9183 75.6364L81.3729 74.2727L80.882 79.8727L80.3547 80.3818L79.5729 79.5273ZM75.2274 76.6182L75.3183 75.6364H76.282L79.3001 78.9455L79.2092 79.9091H78.2456L75.2274 76.6182ZM90.2139 85.3818L89.4685 86.0727L88.8685 85.3818L89.1776 81.7455L90.1048 80.8909L90.5594 81.4182L90.2139 85.3818ZM90.6866 79.8727L90.1594 80.3818L89.3776 79.5273L89.6866 75.8909L90.4321 75.2L91.0321 75.8909L90.6866 79.8727ZM90.1957 74.9455L89.4685 75.6364H85.0503L83.8139 74.2727H89.5776L90.1957 74.9455ZM89.1957 86.3273L88.4685 87H82.7048L84.1776 85.6364H88.5957L89.1957 86.3273ZM84.4685 79.5273L83.5412 80.3818L83.0685 79.8727L83.5412 74.5273L84.7776 75.8909L84.4685 79.5273ZM83.9594 85.3818L82.4685 86.7455L82.9412 81.4182L83.4866 80.8909L84.2685 81.7455L83.9594 85.3818Z" fill="#01F1C7"/>
<path d="M96 83.2001C96.3183 83.2001 96.6235 83.0737 96.8485 82.8486C97.0736 82.6236 97.2 82.3184 97.2 82.0001V74.8001C97.2 74.4818 97.0736 74.1766 96.8485 73.9516C96.6235 73.7265 96.3183 73.6001 96 73.6001C95.6817 73.6001 95.3765 73.7265 95.1515 73.9516C94.9264 74.1766 94.8 74.4818 94.8 74.8001V82.0001C94.8 82.3184 94.9264 82.6236 95.1515 82.8486C95.3765 83.0737 95.6817 83.2001 96 83.2001ZM96 88.0001C96.2967 88.0001 96.5867 87.9121 96.8334 87.7473C97.08 87.5825 97.2723 87.3482 97.3858 87.0741C97.4993 86.8 97.5291 86.4984 97.4712 86.2075C97.4133 85.9165 97.2704 85.6492 97.0607 85.4394C96.8509 85.2297 96.5836 85.0868 96.2926 85.0289C96.0017 84.971 95.7001 85.0007 95.426 85.1143C95.1519 85.2278 94.9176 85.4201 94.7528 85.6667C94.588 85.9134 94.5 86.2034 94.5 86.5001C94.5 86.8979 94.658 87.2794 94.9393 87.5608C95.2206 87.8421 95.6022 88.0001 96 88.0001Z" fill="#01F1C7"/>
<path d="M103 83.2001C103.318 83.2001 103.623 83.0737 103.849 82.8486C104.074 82.6236 104.2 82.3184 104.2 82.0001V74.8001C104.2 74.4818 104.074 74.1766 103.849 73.9516C103.623 73.7265 103.318 73.6001 103 73.6001C102.682 73.6001 102.377 73.7265 102.151 73.9516C101.926 74.1766 101.8 74.4818 101.8 74.8001V82.0001C101.8 82.3184 101.926 82.6236 102.151 82.8486C102.377 83.0737 102.682 83.2001 103 83.2001ZM103 88.0001C103.297 88.0001 103.587 87.9121 103.833 87.7473C104.08 87.5825 104.272 87.3482 104.386 87.0741C104.499 86.8 104.529 86.4984 104.471 86.2075C104.413 85.9165 104.27 85.6492 104.061 85.4394C103.851 85.2297 103.584 85.0868 103.293 85.0289C103.002 84.971 102.7 85.0007 102.426 85.1143C102.152 85.2278 101.918 85.4201 101.753 85.6667C101.588 85.9134 101.5 86.2034 101.5 86.5001C101.5 86.8979 101.658 87.2794 101.939 87.5608C102.221 87.8421 102.602 88.0001 103 88.0001Z" fill="#01F1C7"/>
</svg>
