<svg width="872" height="890" viewBox="0 0 872 890" fill="none" xmlns="http://www.w3.org/2000/svg">
<path opacity="0.37" d="M75.9 723.7C77.8 728.4 79.9 733.1 82.2 737.6C116.4 804.7 185.8 847 259.8 854.6C319 860.6 376.6 841.3 426.1 809.8C475.5 778.4 515.1 734.2 570 711.2C647.4 678.9 733.7 653.4 794.4 585C863.4 507.3 890 389.5 857.5 290.1C825.9 193.1 721 161.7 639.5 119C493 42.1 290.1 -8.99999 137.6 81.3C-45.1 189.4 -11.9 434.8 46 605.1C59.2 643.9 60.8 685.7 75.9 723.7Z" fill="#2D3540"/>
<path d="M169.1 263.9L168.8 262H166.9C129.9 262 117.9 250.1 117.8 250L116.2 248.2L114.6 250C114.5 250.1 102.6 262 65.5 262H63.6L63.3 263.9C63.2 264.5 55.4 324.1 115.2 354.7L116.2 355.2L117.2 354.7C177.2 324.1 169.1 264.5 169.1 263.9ZM160.1 300.8C152.7 322.2 137.9 338.8 116.1 350.2C94.3 338.8 79.5 322.2 72.1 300.8C66.7 285.1 67 271.4 67.4 266.5C98.2 266.1 111.9 257.9 116.1 254.5C120.3 257.8 134 266.1 164.8 266.5C165.2 271.5 165.5 285.1 160.1 300.8ZM227.8 187.3L225.7 181.8C223.8 181.6 222 181.1 220.2 180.5L215.9 184.5L203.5 175.6L205.9 170.2C204.7 168.7 203.7 167.1 202.9 165.4L197 165.2L194.5 150.1L200 148C200.2 146.1 200.7 144.3 201.3 142.5L197.3 138.2L206.2 125.7L211.6 128.1C213.1 126.9 214.7 125.9 216.4 125.1L216.6 119.2L231.7 116.7L233.8 122.2C235.7 122.4 237.5 122.9 239.3 123.5L243.6 119.5L256 128.4L253.6 133.8C254.8 135.3 255.8 136.9 256.6 138.6L262.5 138.8L265 153.9L259.5 156C259.2 157.9 258.8 159.7 258.2 161.5L262.2 165.8L253.3 178.3L247.9 175.9C246.4 177.1 244.8 178.1 243.1 178.9L242.9 184.8L227.8 187.3ZM219.2 175.7L220.4 176.2C222.6 177.1 225 177.6 227.4 177.8L228.7 177.9L230.5 182.6L238.8 181.2L239 176.2L240.2 175.7C242.4 174.7 244.4 173.4 246.3 171.9L247.3 171.1L251.9 173.2L256.8 166.4L253.3 162.7L253.8 161.5C254.7 159.3 255.2 156.9 255.4 154.5L255.5 153.2L260.2 151.4L258.8 143.1L253.8 142.9L253.3 141.7C252.3 139.5 251 137.5 249.5 135.6L248.7 134.6L250.8 130L244 125.1L240.3 128.5L239.1 128C236.9 127.1 234.5 126.6 232.1 126.4L230.8 126.3L229 121.6L220.7 123L220.5 128L219.3 128.5C217.1 129.5 215.1 130.8 213.2 132.3L212.2 133.1L207.6 131L202.7 137.8L206.2 141.5L205.7 142.7C204.8 144.9 204.3 147.3 204.1 149.7L204 151L199.3 152.8L200.7 161.1L205.7 161.3L206.2 162.5C207.2 164.7 208.5 166.7 210 168.6L210.8 169.6L208.7 174.2L215.5 179.1L219.2 175.7ZM229.6 168.7C226.2 168.7 222.8 167.6 220 165.6C212.5 160.3 210.8 149.9 216.1 142.4C221.4 134.9 231.8 133.2 239.3 138.5C242.9 141.1 245.3 144.9 246.1 149.3C246.8 153.7 245.8 158.1 243.3 161.7C240.7 165.3 236.9 167.7 232.5 168.5C231.4 168.6 230.5 168.7 229.6 168.7ZM229.6 139.6C225.7 139.6 221.9 141.4 219.5 144.8C217.6 147.5 216.8 150.8 217.4 154.1C218 157.4 219.7 160.2 222.4 162.1C225.1 164 228.4 164.8 231.7 164.2C235 163.6 237.8 161.9 239.7 159.2C241.6 156.5 242.4 153.2 241.8 149.9C241.2 146.6 239.5 143.8 236.8 141.9C234.6 140.4 232.1 139.6 229.6 139.6ZM707.2 350.3L702.5 338C697.5 337.4 692.5 336.3 687.8 334.6L678.2 343.6L652.2 325.1L657.6 313.1C654.5 309.2 651.8 304.9 649.6 300.3L636.5 299.9L631.2 268.4L643.5 263.7C644.1 258.7 645.2 253.7 646.9 249L637.9 239.4L656.4 213.4L668.4 218.8C672.3 215.7 676.6 213 681.2 210.8L681.6 197.7L713.1 192.4L717.8 204.7C722.8 205.3 727.8 206.4 732.5 208.1L742.1 199.1L768.1 217.6L762.7 229.6C765.8 233.5 768.5 237.8 770.7 242.4L783.8 242.8L789.1 274.3L776.8 279C776.2 284 775.1 289 773.4 293.7L782.4 303.3L763.9 329.3L751.9 323.9C748 327 743.7 329.7 739.1 331.9L738.7 345L707.2 350.3ZM686.4 328.2L688 328.8C693.3 330.8 698.9 332.1 704.6 332.6L706.4 332.8L710.7 344L733.1 340.2L733.5 328.2L735.1 327.5C740.3 325.2 745.2 322.1 749.6 318.4L750.9 317.3L761.9 322.2L775.1 303.7L766.9 294.9L767.5 293.3C769.5 288 770.8 282.4 771.3 276.7L771.4 274.9L782.6 270.6L778.8 248.2L766.8 247.8L766.1 246.2C763.8 241 760.7 236.1 757 231.7L755.9 230.4L760.8 219.4L742.3 206.2L733.5 214.4L731.9 213.8C726.6 211.8 721 210.5 715.3 210L713.5 209.9L709.2 198.7L686.8 202.5L686.4 214.5L684.8 215.2C679.6 217.5 674.7 220.6 670.3 224.3L669 225.4L658 220.5L645 239L653.2 247.8L652.6 249.4C650.6 254.7 649.3 260.3 648.8 266L648.7 267.8L637.5 272.1L641.3 294.5L653.3 294.9L654 296.5C656.3 301.7 659.4 306.6 663.1 311L664.2 312.3L659.3 323.3L677.8 336.5L686.4 328.2ZM710 307.6C702.7 307.6 695.4 305.4 689 300.9C672.7 289.3 668.9 266.6 680.5 250.3C692.1 234 714.8 230.2 731.1 241.8C747.4 253.4 751.2 276.1 739.6 292.4C732.5 302.3 721.3 307.6 710 307.6ZM710.1 240.7C700.5 240.7 691 245.2 685.1 253.6C680.3 260.3 678.5 268.4 679.8 276.5C681.2 284.6 685.6 291.6 692.3 296.4C706.1 306.2 725.3 303 735.1 289.2C739.8 282.5 741.7 274.4 740.4 266.3C739 258.2 734.6 251.2 727.9 246.4C722.4 242.5 716.2 240.7 710.1 240.7ZM220.3 575.3C215.5 561.8 210 546.6 216.1 531C224.3 510 206.9 499.2 191.6 489.5C178.4 481.3 166 473.5 170.2 460.6C174.8 446.6 174.5 435.8 169.3 428.7C164.9 422.7 157.1 419.5 146.7 419.6C138.4 419.7 131 409.5 123.1 398.8C113.8 386.2 104.3 373.2 92.3 376.1C90.2 376.6 88.5 377.8 87.5 379.7C83.3 387.6 89.9 406.4 97 426.4C104.6 448 113.3 472.4 107.6 482.8C101.4 494.2 112.6 504.6 124.5 515.7C137.1 527.4 151.4 540.7 147.6 557.4C144 573 143.2 578.8 145.4 582.2C147.1 584.9 150.6 585.5 155.9 586.5C159.5 587.2 164.1 588 169.7 589.8C193.8 597.3 200.8 612.9 200.9 613.1L201.2 613.8L201.9 613.7C213.5 611.9 220.3 608.6 223.5 603.3C223.7 603 223.8 602.7 224 602.4C227.4 595.3 224.1 586 220.3 575.3Z" fill="#FFBE55"/>
<path d="M158.7 545.5C162.7 551.7 165.6 557.1 165.3 564.7C165.1 571.8 164 578.8 163.4 585.8C163.3 587.3 163.2 588.7 163.1 590.1C161.1 588.4 159.2 586.7 157.2 585C156.3 584.9 155.4 584.9 154.4 584.9C157.2 587.2 160.1 589.7 162.9 592.2C162.6 597.1 162.5 602 162.5 606.9C162.5 609.8 162.4 612.9 162.6 615.8C160 614.2 157.3 612.6 154.8 611C147 606.2 139.7 601.7 134.1 599.3C129.8 597.5 125 595.9 120.4 594.4C108.4 590.5 96.1001 586.5 92.0001 578C89.9001 573.6 90.1001 568.3 92.6001 561.9C98.9001 545.4 93.0001 542.6 83.1001 537.8C75.9001 534.3 66.1001 529.6 56.3001 517.7C52.0001 512.5 48.2001 508 44.8001 504.1C34.7001 492.2 29.1001 485.7 29.8001 481.9C30.0001 481 30.5001 480.2 31.5001 479.4C32.0001 479 32.6001 478.6 33.4001 478.2C37.2001 476.1 41.0001 477.7 45.3001 479.5C51.1001 481.9 58.2001 485 68.1001 479.9C75.9001 475.9 84.6001 472.2 89.8001 475.2C93.4001 477.2 95.5001 482.4 96.2001 490.9C96.4001 493.6 97.3001 495.5 98.8001 496.6C101 498.2 104.4 498 108.3 497.2C111 500.9 114.5 502.7 118.7 504.2C124.6 506.3 129 508.2 133.3 513C142.5 523.4 151.4 534 158.7 545.5Z" fill="#0E538C"/>
<path d="M126.8 562C120.8 558 115.6 548.3 110.6 538.9C103.8 526.1 96.7 512.9 87 513.2C71.4 513.6 57.5 495.2 57.3 495.1L56 496.1C56.6 496.9 70.6 515.3 87 514.9C95.7 514.7 102.6 527.4 109.1 539.8C114.2 549.3 119.5 559.2 125.8 563.5C129.6 566 136.6 571.1 144.9 577.6V575.5C137.6 569.4 131.1 564.8 126.8 562Z" fill="white"/>
<path d="M653.8 685.9C653.8 685.9 662.8 663.5 646.4 631.7C629.9 599.9 616.6 604.8 656.3 580.3C696 555.8 656.5 478.8 690.3 469C724.1 459.2 753.4 334.5 779.1 350.4C804.8 366.3 770.5 427.4 788.9 445.8C807.2 464.2 809.7 487.5 771.8 506.4C733.9 525.3 798.7 597.5 747.3 619.5C695.9 641.5 710.7 727.8 653.8 685.9Z" fill="#FFBE55"/>
<path d="M669.5 709.6C669.4 709.3 663.9 680.7 681.4 643.7C699.2 606 707.7 564.8 704.2 533.4C702.3 516.4 713.2 509.8 723.7 503.4C734.1 497.1 744.8 490.5 744.2 473.8C743.7 458.7 750.1 423.3 750.3 421.8L752.6 422.2C752.5 422.6 746 458.9 746.5 473.7C747.1 491.8 735.8 498.7 724.9 505.3C714.5 511.6 704.8 517.6 706.5 533.1C710.1 564.8 701.5 606.5 683.5 644.6C666.4 680.9 671.7 708.8 671.8 709.1L669.5 709.6Z" fill="white"/>
<path d="M806 523.8C820.3 517 835.5 520.1 827.6 534.4C819.7 548.7 807.9 549.8 810.1 561.1C812.3 572.4 818.1 584.7 799.5 591.9C780.9 599 772.2 597.8 760.9 618.7C749.5 639.6 745.6 655.1 726.1 650.1C706.6 645 722.8 619.3 732.9 608.5C732.9 608.5 746.6 596.9 746.4 576C746.2 555.1 737.6 541.1 764.6 542.5C791.6 543.7 796.3 528.4 806 523.8Z" fill="#0E538C"/>
<path d="M723 664.7C723.8 662 742.6 597.3 758 590.3C773.7 583.1 782.2 564.3 785.9 553.8C790.7 540.1 811.2 537.4 812 537.3L812.3 539.6C812.1 539.6 792.4 542.2 788.1 554.5C783.5 567.8 774.7 585.2 759 592.4C744.6 599 725.5 664.7 725.3 665.4L723 664.7ZM227.7 612.6C196.9 604.9 196.5 588.3 196.1 572.3C195.8 559.2 195.5 546.8 178.8 539.2C156.7 529.1 156.2 510.4 155.7 493.9C155.3 481.6 155 470 145.8 463.7C123.7 448.6 105 412 104.8 411.6L106.5 410.7C106.7 411.1 125.1 447.2 146.9 462.1C156.9 468.9 157.3 481 157.6 493.8C158.1 510.5 158.6 527.9 179.6 537.4C197.3 545.5 197.7 559.1 198 572.2C198.4 588.2 198.8 603.4 228.2 610.7L227.7 612.6Z" fill="white"/>
<path d="M186.2 597.8H692.1V232.6C692.1 227.4 687.9 223.1 682.6 223.1H195.7C190.5 223.1 186.2 227.3 186.2 232.6V597.8Z" fill="#3F3F3F"/>
<path d="M673.27 529.714L204.07 529.714L204.07 241.414L673.27 241.414V529.714Z" fill="#171C24" stroke="white" stroke-width="0.5" stroke-miterlimit="10"/>
<path d="M692.1 543.7H186.4L131 750.6H747.4L692.1 543.7Z" fill="#727272"/>
<path d="M205.5 580H236.6C237.9 580 238.9 581 238.6 582.1L235.6 595.6C235.4 596.4 234.6 597 233.6 597H202C200.7 597 199.7 596 200 594.8L203.5 581.3C203.7 580.6 204.5 580 205.5 580ZM250.8 580H274.3L271.2 597.1H247.2L250.8 580ZM286 580H309.5L307.1 597.1H283.1L286 580ZM321.3 580H344.8L343 597.1H319L321.3 580ZM356.5 580H380L378.9 597.1H354.9L356.5 580ZM391.7 580H415.2L414.8 597.1H390.8L391.7 580ZM673.7 580H638.4L642.2 597.1H678.1L673.7 580ZM626.7 580H603.2L606.3 597.1H630.3L626.7 580ZM591.5 580H568L570.4 597.1H594.4L591.5 580ZM556.2 580H532.7L534.5 597.1H558.5L556.2 580ZM521 580H497.5L498.6 597.1H522.6L521 580ZM485.8 580H462.3L462.7 597.1H486.7L485.8 580ZM427 580H450.5L450.8 597.1H427V580ZM195.2 609.8H244.2L241.4 627.4H191.4L195.2 609.8ZM681.3 609.8H620.7L624.1 627.4H686L681.3 609.8ZM608.5 609.8H584.3L587 627.4H611.8L608.5 609.8ZM572.1 609.8H547.9L549.9 627.4H574.7L572.1 609.8ZM535.7 609.8H511.5L512.9 627.4H537.6L535.7 609.8ZM499.3 609.8H475.1L475.8 627.4H500.5L499.3 609.8ZM187.8 641.1H238L234.3 658.6H183.2L187.8 641.1ZM250.5 641.1H275.6L272.7 658.6H247.1L250.5 641.1ZM288.2 641.1H476.3L477 658.6H285.4L288.2 641.1ZM488.9 641.1H514L515.4 658.6H489.8L488.9 641.1ZM526.5 641.1H551.6L553.7 658.6H528.1L526.5 641.1ZM564.2 641.1H589.3L592 658.6H566.5L564.2 641.1ZM601.8 641.1H626.9L630.3 658.6H604.8L601.8 641.1ZM639.4 641.1H689.6L694.2 658.6H643.1L639.4 641.1ZM463 609.8H438.9V627.4H463.4L463 609.8ZM426.6 609.8H402.3L401.6 627.4H426.4L426.6 609.8ZM390.2 609.8H365.9L364.5 627.4H389.3L390.2 609.8ZM353.8 609.8H329.5L327.4 627.4H352.2L353.8 609.8ZM317.4 609.8H293.1L290.3 627.4H315.1L317.4 609.8ZM281 609.8H256.7L253.3 627.4H278L281 609.8ZM206.6 569.3L210.6 554.1H222L218.3 569.3H206.6ZM233.4 554.1H256.2L253.1 569.3H229.8L233.4 554.1ZM267.7 554.1H290.5L287.9 569.3H264.7L267.7 554.1ZM301.9 554.1H324.7L322.7 569.3H299.5L301.9 554.1ZM336.1 554.1H358.9L357.5 569.3H334.3L336.1 554.1ZM370.3 554.1H393.1L392.3 569.3H369.1L370.3 554.1ZM404.5 554.1H427.3L427.1 569.3H403.9L404.5 554.1ZM438.7 554.1H461.5L461.9 569.3H438.7V554.1ZM472.9 554.1H495.7L496.7 569.3H473.5L472.9 554.1ZM507.1 554.1H530L531.5 569.3H508.3L507.1 554.1ZM541.4 554.1H564.2L566.4 569.3H543.2L541.4 554.1ZM575.6 554.1H598.4L601.2 569.3H578L575.6 554.1ZM609.8 554.1H632.6L636 569.3H612.8L609.8 554.1ZM644 554.1H666.8L670.8 569.3H647.6L644 554.1Z" fill="black" stroke="white" stroke-width="0.5" stroke-miterlimit="10"/>
<path d="M731.3 766.7H147.1C138.2 766.7 131 759.5 131 750.6H747.4C747.4 759.5 740.2 766.7 731.3 766.7ZM510.9 683.7C510.3 680.1 507.1 677.4 503.5 677.4H375C371.3 677.4 368.2 680.1 367.6 683.7L359.6 732.2C358.8 736.8 362.4 741 367 741H511.4C516.1 741 519.6 736.8 518.8 732.2L510.9 683.7Z" fill="#3F3F3F"/>
<path d="M235.7 265.9H288V271.3H235.7V265.9ZM302.7 306.2H340.4V311.6H302.7V306.2ZM346.3 306.2H371.3V311.6H346.3V306.2ZM236.3 407.6H261.3V413H236.3V407.6ZM376.3 306.2H436.8V311.6H376.3V306.2ZM236.3 387.3H275.2V392.7H236.3V387.3ZM290.5 427.7H314.2V433.1H290.5V427.7ZM236.3 427.7H283.3V433.1H236.3V427.7ZM236.3 447.9H262.2V453.3H236.3V447.9ZM298.2 265.9H335.3V271.3H298.2V265.9ZM298.2 326.4H335.3V331.8H298.2V326.4ZM279.6 346.5H295.5V351.9H279.6V346.5ZM263.8 367H299.4V372.4H263.8V367ZM304.8 367H354V372.4H304.8V367ZM236.3 346.7H273.4V352.1H236.3V346.7ZM236.3 367H258.3V372.4H236.3V367ZM303 346.7H323.8V352.1H303V346.7ZM237 468H257.8V473.4H237V468ZM236.2 306.2H273.3V311.6H236.2V306.2ZM269 407.6H306.1V413H269V407.6ZM269.5 447.9H306.6V453.3H269.5V447.9ZM335.4 447.9H372.5V453.3H335.4V447.9ZM236.2 326.4H289.1V331.8H236.2V326.4ZM484.1 265.9H521.2V271.3H484.1V265.9ZM351.9 468H389V473.4H351.9V468ZM532.7 265.9H557.5V271.3H532.7V265.9ZM616.8 286.1H641.6V291.5H616.8V286.1ZM345.3 265.9H392.6V271.3H345.3V265.9ZM529.5 286.1H576.8V291.5H529.5V286.1ZM471.5 306.2H518.8V311.6H471.5V306.2ZM410 326.4H457.3V331.8H410V326.4ZM524.7 306.2H558.3V311.6H524.7V306.2ZM427.5 265.9H474.8V271.3H427.5V265.9ZM373.6 326.4H401.3V331.8H373.6V326.4ZM351.9 407.9H379.6V413.3H351.9V407.9ZM401.3 265.9H418.6V271.3H401.3V265.9ZM345.3 326.4H362.6V331.8H345.3V326.4ZM588.2 286.1H605.5V291.5H588.2V286.1ZM235.7 286.1H262.8V291.5H235.7V286.1ZM308 387.4H329.4V392.8H308V387.4ZM269.5 286.1H278.2V291.5H269.5V286.1ZM448.9 286.1H521.2V291.5H448.9V286.1ZM379.6 447.9H451.9V453.3H379.6V447.9ZM284.6 286.1H293.5V291.5H284.6V286.1ZM418.6 286.1H442.2V291.5H418.6V286.1ZM442.3 306.2H465.9V311.6H442.3V306.2ZM320.7 468H344.3V473.4H320.7V468ZM362.1 286.1H412.4V291.5H362.1V286.1ZM315.2 407.9H344.6V413.3H315.2V407.9ZM313.4 447.9H328.1V453.3H313.4V447.9ZM337.6 286.1H354.9V291.5H337.6V286.1ZM279.4 306.2H296.7V311.6H279.4V306.2ZM282.8 387.4H300.1V392.8H282.8V387.4ZM300.9 286.1H331.1V291.5H300.9V286.1Z" fill="#01F1C7"/>
<path d="M554.1 326.6C554.1 326.6 562.9 341.5 566.6 343.9C571.6 347.2 568.5 350.5 566.1 350.6C563.7 350.6 551.5 351.5 548.8 348.4C546.1 345.3 544.8 336.2 542.3 333.8C539.8 331.4 537.2 321.9 543.5 319.6C549 317.5 554.1 326.6 554.1 326.6Z" fill="#FFB750"/>
<path d="M550.2 320.1C550.2 320.1 560.3 337.6 562 340.1C563.7 342.7 558.7 342.7 555.6 341.5C552.5 340.3 544.7 327.8 543.6 325.5C542.3 322.8 543.4 319.7 543.4 319.7L550.2 320.1Z" fill="#FFE3CA"/>
<path d="M540 329.4L542.4 347.3L543.6 347.4L543.2 334.5L540 329.4ZM466.8 326.6C466.8 326.6 475.6 341.5 479.3 343.9C484.3 347.2 481.2 350.5 478.8 350.6C476.4 350.6 464.2 351.5 461.5 348.4C458.8 345.3 457.5 336.2 455 333.8C452.5 331.4 449.8 321.6 456.2 319.6C461.8 317.8 466.8 326.6 466.8 326.6Z" fill="#FFB750"/>
<path d="M463.5 320.1C463.5 320.1 473 337.5 474.8 340.1C476.5 342.7 471.5 342.7 468.4 341.5C465.3 340.3 457.5 327.8 456.4 325.5C455.1 322.8 456.2 319.7 456.2 319.7L463.5 320.1Z" fill="#FFE3CA"/>
<path d="M452.8 329.4L455.1 347.3L456.4 347.4L456 334.5L452.8 329.4Z" fill="#FFB750"/>
<path d="M427.8 190.9L507.4 227.2C507.4 227.2 516.3 230.1 517.3 240C520.4 270.8 543.4 319.6 543.4 319.6C550.8 323.2 550.2 320.1 550.2 320.1C545.5 305.1 539.9 243.5 537.8 218.8C537.4 213.6 537.1 210 537 208.8C537 208 536.1 207 534.6 205.8C523.7 196.9 478.7 178.6 478.7 178.6C445.2 177.7 427.8 190.9 427.8 190.9Z" fill="#FFE3CA"/>
<path d="M412.8 206.5C415.3 228 446 225.6 446 225.6H483.2C483.2 225.6 473.4 247.4 469.6 265.7C465.6 285.2 456.1 319.6 456.1 319.6C456.1 319.6 456.7 320.8 463.5 320.1C463.5 320.1 492.7 261.9 503.9 247.2C506.3 244.1 513.2 226.9 514.4 216.7C514.8 213.3 514.6 210.6 513.3 209.5C512 208.4 509 206.4 505.1 203.9C493.4 196.5 473.2 185.2 461.9 182.7C446.8 179.3 422.9 172.9 422.9 172.9C422.9 172.9 410.3 185 412.8 206.5Z" fill="#FFE3CA"/>
<path d="M438.1 40.7C438.1 40.7 432.5 30.1 435.2 18.9C437.9 7.60001 448.4 -3.59999 463.7 1.60001C479 6.80001 491.4 18.6 482.2 32.4C473 46.1 490.5 52.4 486 58.9C481.5 65.4 483.2 72.3 485.1 73.8C487 75.3 493.1 80.7 492.4 87.2C491.7 93.6 462.7 68.5 462.7 68.5C462.7 68.5 447 36.6 438.1 40.7Z" fill="black"/>
<path d="M484.8 175.9C484.8 175.9 482.5 187.1 423 173C423 173 442.9 166.4 484.8 175.9Z" fill="#EB4747"/>
<path d="M422.3 176.1C421.4 177.9 420.5 179.6 419.5 181.4C441.2 182 463 182.7 484.7 183.3C481.3 171.8 482.4 156.2 483 144.4C483.7 129.9 491.7 119.9 490.9 105.3C495.2 106 495.9 106.1 500.2 106.8C493.6 88 491.4 78.7 470.9 71.5C464.2 69.1 459.9 68.7 452.7 69.3C429 71.3 421.9 71.5 410.2 93C428.4 95.9 425.4 102.4 430.9 120.6C433.6 129.4 436.4 139.3 435 148.6C433.6 157.7 422.3 167.8 422.3 176.1Z" fill="white"/>
<path d="M460.1 76C450.4 74.2 452.5 68.8 452.5 68.8C452.5 68.8 452.9 65.8 453.1 61.9C453.1 60.9 453.2 59.9 453.2 58.8C453.2 57.2 453.1 55.6 452.9 54C452.1 47.5 470.5 51.4 470.5 51.4C470.5 51.4 469.4 64.6 472 68.5C474.5 72.5 469.8 77.9 460.1 76Z" fill="#FFE3CA"/>
<path d="M441.6 68.8C441.6 68.8 461.2 91.4 468.4 96.6C468.4 96.6 476.7 89.1 471.6 69.3C471.6 69.3 462.2 64.5 441.6 68.8ZM442.2 14.4C442.2 14.4 432 34 442.1 52.5C452.2 71 472 44.4 473.2 41.3C474.5 38.2 481.3 20.5 467.8 15.2C454.3 9.80001 445.1 9.10001 442.2 14.4Z" fill="#FFE3CA"/>
<path d="M461.8 54.5C461.8 54.5 460 58.4 453.1 61.9C453.1 60.9 453.2 59.9 453.2 58.8C453.2 58.8 457.9 58.3 461.8 54.5Z" fill="#FCD2B1"/>
<path d="M359.1 158.5C359.1 158.5 354.3 160.6 352 159.7C349.7 158.7 346.2 158.5 345.1 158.5C343.6 158.5 338.9 156.8 339 158.7C339.1 160.5 346.6 161.8 348.1 162.4C349.6 163 343.5 166.3 342.9 167.8C342.3 169.3 349.3 179.1 353.2 176.3C357.1 173.5 359.2 167.9 360 167.5C360.8 167.1 362.9 165.6 362.9 165.6L359.1 158.5Z" fill="#FFE3CA"/>
<path d="M343.7 166.9C343.7 166.9 332.4 176.3 332.2 177.6C332 178.9 332.6 179.5 333.7 178.6C334.8 177.8 344.9 169.8 344.9 169.8C344.9 169.8 333.6 183.2 333.2 184.2C333 184.8 334.1 186 334.7 185.6C335.3 185.2 347.4 172.6 347.4 172.6C347.4 172.6 336.8 185.1 336.8 186.1C336.7 186.9 338 187.8 338.9 186.9C339.8 186 350.3 175 350.3 175C350.3 175 343.2 184.6 343.7 185.5C344 186 344.9 187.1 346.6 184.6C348.3 182.1 353.1 176.5 353.1 176.5L343.7 166.9Z" fill="#FFE3CA"/>
<path d="M479.3 225.5H446C446 225.5 415.3 228 412.8 206.4C410.3 184.9 422.9 172.9 422.9 172.9C422.9 172.9 439.1 177.2 453.3 180.6C460.4 179.1 468.9 178.1 478.9 178.4C478.9 178.4 538.9 198.2 537.1 208.7C537.1 208.8 512 195.4 479.3 225.5Z" fill="#171C24"/>
<path d="M457.6 188.3L521.2 187.3L489.1 203.6L457.6 188.3Z" fill="#F2F2F2"/>
<path d="M477.4 180.1C477.4 180.1 463.1 185.6 445.6 180.6L444.8 174.1L480.9 176.1L477.4 180.1Z" fill="white"/>
<path d="M489.1 203.6L457.6 191.4V188.3L491.6 200.5L489.1 203.6Z" fill="#D3D3D3"/>
<path d="M477.1 183.2C476.9 185.5 479.3 187.2 481.5 186.3L485.2 184.7C486.3 184.2 487 183.1 486.8 181.9C485.3 172.3 482 134.9 486.8 128.4C488.6 126 489.7 123.9 490.3 122.1C493.5 130.3 497.4 140.9 499 146.6L529 186.6L539.1 189.2C526.5 158.9 516.4 142.9 516.4 142.9C514.4 137.6 508.8 121.6 503.8 107.4C500.6 98.4 497.8 90.1 496.2 85.7C495.4 83.4 493.9 81.5 491.8 80.3C487.1 77.5 479.4 73.1 472.4 69.7H472.3C472.1 69.6 471.9 69.5 471.6 69.4C485 89.5 479.8 146.6 477.1 183.2C477.1 183.1 477.1 183.1 477.1 183.2ZM427.5 71C423.2 71.7 412.6 82 407 92.4C400.6 104.3 394 117.8 389.1 122.2C380.1 130.4 354.8 159.3 353.6 158.6C353.1 158.3 360.5 167.2 361.5 167.6C362 167.8 403 132.2 407 126.8C410.7 121.7 420.7 100.1 423.7 100.6C423.9 101.1 427.6 109 431 120.5C431.1 120.7 431.1 120.9 431.2 121.1C433.6 129.1 433.4 137.9 432.1 147.7C431.1 155.1 425.6 167.2 422.3 173.1C421.9 173.8 422 175.2 422.4 176.2C422.7 176.8 423 177.3 423.5 177.5L435.6 182L438.4 183C440.4 183.8 442.6 183.4 444.2 182.2C445.5 181.3 446.5 179.8 446.7 178C449.4 157.4 452.8 136.3 455.5 128.4C467.4 93.6 450.9 67.4 450.9 67.4C450.9 67.4 431.3 69.6 427.5 71Z" fill="#01F1C7"/>
<path d="M489.1 203.6L508 152L568.9 153L550.9 200.6L489.1 203.6Z" fill="#FFBE55"/>
<path d="M527.5 174.8C525.6 178.5 526.2 182.6 528.8 183.8C531.4 185.1 534.9 183.1 536.8 179.4C538.7 175.7 538.1 171.6 535.5 170.4C532.9 169.1 529.3 171.1 527.5 174.8Z" fill="#F2F0F0"/>
<path d="M490.5 77.3C486 70.5 482.8 65.1 482.4 55.4C482.1 49 480.7 40.3 476.3 36C480.9 24 475.5 20.4 473.3 16.5C470.6 11.6 450.6 -0.199999 442.7 12.2C434.8 24.5 437.6 37.4 437.6 37.4C438.4 30.6 445.4 21.4 445.4 21.4C446.5 28.5 461.2 40.1 467.6 44.8C467.5 44.9 467.4 45.1 467.4 45.2C463.8 50.4 468.3 55.6 469.1 61.1C469.9 66.6 454 81.4 471.7 88.8C489.4 96.3 495 84 490.5 77.3ZM168.6 659.8C168.6 659.8 168.2 664 148.6 664C129 664 100.5 658.9 100.5 658.9L146 654.5C146 654.5 163.5 653.6 168.6 659.8Z" fill="black"/>
<path d="M118.7 661.3C107.6 661.3 102.9 667 98.5 668.8C94.1 670.6 89.7 673.3 89.7 673.2C92.2 668.3 95.7 668.2 97.5 666.6C99.3 665 98.8 665.8 94.9 665.5C92.7 665.3 88.7 669.4 85.9 671.7C83.4 673.6 81.9 673.8 81.9 673.8C81.9 673.8 84.8 669.7 88.4 666.4C92.8 662.4 98.3 659.1 99.6 658.5C102 657.5 109.4 657.3 114.6 658C120.6 658.8 126.7 661.3 118.7 661.3Z" fill="#0E538C"/>
<path d="M100.3 658.7C100.3 658.7 91.8 660.9 90.3 662.1C89.3 662.9 84.9 667.6 84.9 667.6C84.9 667.6 88.1 667.1 89.9 665.3C91.8 663.4 100.3 658.7 100.3 658.7ZM152.5 651.2C152.5 651.2 173.9 652.6 172.4 665.8C171.6 673.3 166.7 675.9 160.2 675.3C148.2 674.3 134.6 672.5 134.6 672.5L128.5 652L152.5 651.2Z" fill="#0E538C"/>
<path d="M157 653L178 585.3C178 585.3 181.1 575.4 186.2 577.2C193.5 579.9 189.9 588 189.3 592.8C188 602.6 188.9 606.9 182.1 630.5C177.9 645.1 174.3 661.9 170.7 671.5C168.2 678.1 163.9 668.6 157.4 666C145.2 661.1 157 653 157 653ZM158.6 548.5C162.7 560.3 175.4 566.4 187.1 562.1C198.7 557.8 204.9 544.7 200.8 532.9C196.7 521.1 184 515 172.3 519.3C160.7 523.6 154.5 536.7 158.6 548.5Z" fill="#01F1C7"/>
<path d="M135.6 549.6C142 559.2 154.8 561.6 164.1 555L162.8 543.7C172.1 537 174.4 523.8 168 514.2L163.6 507.7C157.2 498.1 144.4 495.7 135.1 502.3L130.9 505.3C121.6 512 119.3 525.2 125.7 534.8L135.6 549.6Z" fill="#0E538C"/>
<path d="M127.2 518.1C128.3 519.7 129.5 521.2 130.9 522.7C140.1 532.7 152.4 536.5 160.2 532.4C163.8 537.3 167.9 541.2 171.6 544.2C175.9 547.7 186.9 549.1 186.9 549.1C193.3 556.1 169.3 597 167.6 596.8C164.1 596.5 159.6 573.9 162.9 565.7C164.4 562 166.8 557.6 166.1 555.6C163.6 548.7 160.1 549.9 160.1 549.9C160.1 549.9 155.5 555.3 151.9 555.1C148.2 554.8 141.8 549 141.5 548.9C140.4 548 139.4 546.9 138.5 545.6L128.9 531.2C126.4 527.2 125.8 522.4 127.2 518.1Z" fill="#FFE3CA"/>
<path d="M200.6 690.4C200.6 690.4 192.8 699.8 190.4 700.8C187.2 702.2 177.4 699.2 177.4 699.2C177.4 699.2 174.8 656.1 171.8 639.3C168.8 622.5 164.4 618.1 164.2 612.8C163.9 604.3 156.8 600.9 158 594.3C159.2 587.7 161.3 564.1 162 567.2C168.1 594 175.6 571.7 177.3 568.2C178.2 566.3 200.6 690.4 200.6 690.4Z" fill="#F2F0F0"/>
<path d="M165.1 559.2C165.1 559.2 155.6 569.6 156.3 573.7C156.9 577.8 152.2 590.6 156.9 608.4C162.2 628.7 165 642.5 166 655.8C167 669.1 162.5 681.3 164.3 697.6C165.7 710.4 168.6 711.1 168.6 711.1C168.6 711.1 174.3 712.5 178.3 707.5C182.3 702.6 176.3 659 174.3 648.2C172.3 637.3 165.9 611.9 164.2 604.4C162.1 595.2 162.5 585.8 162.6 583.1C163.1 573.6 164.3 567.7 165.3 564.1C165.4 563.6 165.9 558 165.1 559.2ZM181.7 571.4C186.9 586.4 203.1 594.1 217.9 588.6C232.7 583.1 240.5 566.5 235.3 551.5C230.1 536.5 213.9 528.8 199.1 534.3C184.3 539.7 176.5 556.4 181.7 571.4Z" fill="#0E538C"/>
<path d="M130.8 829.2L136.1 871.5L113.1 882.4L100.4 885.2L123 867.7L115.6 829.5L130.8 829.2Z" fill="#FCBAA2"/>
<path d="M137.6 877.9L132.6 879.2L129.2 876.1L110.8 885.3L94.5001 889.2C94.5001 889.2 94.3001 887.9 94.8001 887.2C96.8001 884.5 108.3 878.6 108.3 878.6C108.3 878.6 108.5 882.5 110.1 882.6C111.7 882.7 125.8 875.3 129.1 873.3C134.7 869.8 135.8 867.5 136.2 867.8C137.4 868.4 137.6 877.9 137.6 877.9Z" fill="#0E538C"/>
<path d="M75.3001 770.4L57.0001 806.4L31.8001 805.2L19.2001 801.5L47.1001 796.8L62.3001 766L75.3001 770.4Z" fill="#FCBAA2"/>
<path d="M55.5001 812.8L50.5001 811.6L48.9001 807.2L26.2001 806.9L12.7001 803.7C12.7001 803.7 14.3001 801.9 15.3001 801.4C18.3001 800.1 29.0001 799.5 29.0001 799.5C29.0001 799.5 27.9001 802.6 29.3001 803.4C30.7001 804.3 46.3001 804.8 50.1001 804.5C56.7001 804 58.6001 802.6 58.8001 803C59.5001 804.4 55.5001 812.8 55.5001 812.8Z" fill="#0E538C"/>
<path d="M208.8 662.7L195.2 668.8L195.3 687.5L101.6 672.2C101.6 672.2 92.7 669.3 87 684C78.9 704.8 58.3 769.5 58.3 769.5L71.3 783.6L112.2 710.5C112.2 710.5 196 751.2 223.6 742.4C234.2 739 242.3 719.6 240.8 700C239.6 684.6 236.6 670.5 236.6 670.5L208.8 662.7Z" fill="#0A192F"/>
<path d="M196.9 742L129.8 737L135.6 844.2L115.8 844.9L101.2 719.3C101.2 719.3 105.1 700.6 117.9 703.4C130.8 706.3 161.8 730.9 196.9 742Z" fill="#0A192F"/>
<path d="M242.1 768.9C242.1 768.9 206.9 729.4 197.8 707.1C186.9 680.4 187.8 646.9 185.8 635.8C182.1 615.4 177.6 575.8 176.8 570.9C175.9 566 179 560.5 179 560.5C179 560.5 176.7 545.7 183.3 547.3C192.8 549.6 202.2 554.8 205.5 556.4C211.7 559.2 224.4 633.8 225.1 637.4C227.7 650.4 237.2 662.2 244 674.3C260 703 264.1 736.9 264.1 736.9C264.1 736.9 262.1 761.7 242.1 768.9Z" fill="#01F1C7"/>
<path d="M205.8 665.6C205.8 665.6 205.5 670.4 183.1 669.3C160.7 668.1 127.9 660.6 127.9 660.6L179.8 658.2C179.8 658.2 199.7 658.3 205.8 665.6Z" fill="#FFE3CA"/>
<path d="M145.5 663.2C134.8 663 130.2 668.5 126 670.2C121.8 671.9 117.5 674.4 117.5 674.4C119.9 669.7 123.3 669.6 125.1 668.1C126.8 666.6 126.4 667.4 122.6 667C120.4 666.8 116.6 670.7 113.9 672.9C111.5 674.8 110 674.9 110 674.9C110 674.9 112.8 670.9 116.3 667.7C120.6 663.9 125.8 660.7 127.1 660.2C129.4 659.3 136.5 659.2 141.6 660C147.3 660.8 153.2 663.4 145.5 663.2Z" fill="#FFE3CA"/>
<path d="M127.6 660.3C127.6 660.3 119.4 662.3 118 663.4C117 664.2 112.8 668.7 112.8 668.7C112.8 668.7 115.8 668.2 117.6 666.5C119.4 664.9 127.6 660.3 127.6 660.3Z" fill="#FFE3CA"/>
<path d="M187.9 660.3L221.1 642.8C221.1 642.8 221.2 664 221.4 672.1C221.6 680.2 225 691.6 218.6 693.3C212.2 695 208.9 694.1 215.5 698C222.1 701.8 220.6 705.8 218.1 709.1C215.6 712.4 226.5 746 223.9 747.9C213.6 734.9 202.5 718.8 197.7 707.1C191.6 691.9 189.2 674.5 187.9 660.3Z" fill="#01F1C7"/>
<path d="M198.6 651.8L197.3 584.2C197.3 584.2 197.4 563.1 197.8 556.9C198.2 550.5 209.1 558 209.1 558C209.1 558 224.4 578.7 224.7 628.6C224.9 662 223.1 679.4 207.7 678C193.4 676.7 177.1 674.5 177.1 674.5L170 656L198.6 651.8Z" fill="#01F1C7"/>
<path d="M195.2 687.5L80.9 673.2L81.2 670.8L195.5 685.1L195.2 687.5Z" fill="#D3D3D3"/>
<path d="M145.1 678.7C144.9 680.6 143.4 682 141.8 681.8L83.2001 674.5C81.6001 674.3 79.6001 672.8 78.2001 667.8L55.6001 609.3C55.9001 606.9 57.8001 605.7 59.4001 606.3L119.3 615.7C120.9 616.3 122 617.7 122.6 620.3L145.1 678.7Z" fill="#171C24"/>
<path d="M137.7 680.3L138.3 680.4L195.5 687.6C193.3 688.5 189.8 688.8 185.9 688.3L138 682.3L137.4 682.2L89.5 676.2C85.6 675.7 82.3 674.5 80.3 673.2L137.7 680.3Z" fill="#D3D3D3"/>
<path d="M198.6 651.8L197.3 584.2C197.3 584.2 198.3 578.5 200.3 573.4C200.8 580.8 204.2 634.1 204.6 641.1C205.1 648.7 211.3 649.5 212.6 652C214 654.4 212.8 654.9 208.2 654C203.7 653 205.3 653.8 206.3 656.2C207.3 658.7 204.8 658 196 654.8C189.6 652.5 177.3 654.8 171.1 656.2L198.6 651.8Z" fill="#01F1C7"/>
<path d="M593.8 485.9C582.8 488.8 562.5 499 558.2 516.5C551.8 542.8 564.6 581.3 544.4 619.1C537.9 631.1 656.1 647.3 656.1 647.3L678.9 514.5C678.9 514.5 650.4 485.7 644.6 483.7C632.5 479.7 615.8 480.1 593.8 485.9Z" fill="#01F1C7"/>
<path d="M679 514.6C683.1 525.2 693.5 588.3 681.9 603.2C680.6 604.9 687.9 607.6 686.6 615.4C686.4 616.7 684.2 623 684.2 623L674.8 625.5L654.3 601.8C654.3 601.8 662.6 588.9 673.5 540C676.7 525.6 678.1 512.2 679 514.6Z" fill="#01F1C7"/>
<path d="M601.4 590C601.4 590 611.3 616.1 635.2 623.1C639.3 624.3 641.9 628.9 639.9 630.4C637.3 632.3 633.9 632.7 627.9 632.7C615.4 632.7 598.4 628.7 586.7 616.9C569.3 599.5 563.8 591.5 565.6 582.8C567.2 573.9 601.4 590 601.4 590Z" fill="#FCD2B1"/>
<path d="M561.6 507.7C556.5 516.3 553.6 530.1 553.7 549.9C553.7 565.2 566.5 590.3 568.4 598C568.7 599.3 569.5 604.8 569.5 604.8L583.6 619.2L611.9 599.3L603.3 585.6L600.7 585.9C600.7 585.9 599.1 578.3 599.5 575.4C599.9 572.5 591.7 533 587.6 507.7C585.3 493 566.6 499.2 561.6 507.7Z" fill="#01F1C7"/>
<path d="M587 585.3L595.3 582.7L598.7 581.8C598.9 584.2 600.9 585.8 600.9 585.8L594.4 586.6L586.9 589L578.1 595.3L587 585.3Z" fill="#0E538C"/>
<path d="M633.4 623L647.8 618.9C647.8 618.9 651.9 624.6 651.1 626C650.3 627.4 651.1 635.8 651.1 635.8L644.1 642L638.4 640C638.4 640 638 637.4 639.9 637.2C641.9 636.9 638.6 635.5 637.6 634.9C636.6 634.2 628.3 629.8 633.4 623Z" fill="#FCD2B1"/>
<path d="M611.2 484.6C609.6 489.3 612 494.6 616.6 496.2L624.8 499.2C629.4 500.9 634.4 498.3 636 493.6L643.3 472C644.9 467.3 642.5 462 637.9 460.3L629.7 457.3C625.1 455.6 620.1 458.2 618.5 462.9L611.2 484.6Z" fill="#FF957E"/>
<path d="M647 503.6C646.2 506.7 643 508.6 640 507.7L615.3 500.6C612.3 499.7 610.5 496.5 611.3 493.3L621.4 455.4C622.2 452.3 625.4 450.4 628.4 451.3L653.1 458.3C656.1 459.2 657.9 462.4 657.1 465.6L647 503.6Z" fill="#FCD2B1"/>
<path d="M659.8 461.8C660 461.6 657.5 458.8 658.8 453.3C660.5 445.9 655 442.9 650.9 442.8C648.5 442.7 640.4 446.6 636.1 447.9C631.8 449.2 632.2 447.5 624.4 446.1C619.2 445.1 618 448 616.2 452C614.4 456.1 614.2 471.7 614.2 471.7C614.9 472.7 616 473.5 616.7 472.7C617.4 471.9 620.2 459.4 622.5 455.7C624.7 452 633.7 457.9 638.6 460.8C643.4 463.7 647.7 464.2 655.4 462.6C656.3 463.6 657.1 464.7 657.1 465.2C657.1 466.2 654.9 473.3 654.9 473.3C654.9 473.3 659.2 470.6 660.4 468.5C661 467.8 661.2 464.4 659.8 461.8Z" fill="black"/>
<path d="M619.1 485.4C618.8 486.4 617.8 487.1 616.8 486.8L611.5 485.3C610.5 485 609.9 483.9 610.2 482.9L612.9 472.8C613.2 471.8 614.2 471.1 615.2 471.4L620.5 472.9C621.5 473.2 622.1 474.3 621.8 475.3L619.1 485.4Z" fill="#FCD2B1"/>
<path d="M615.8 475.8C615.8 475.8 611.8 490.7 610.5 495.7C609.3 500.2 608.4 510.6 632.9 517.6C647.4 521.7 649.8 510.5 650.8 506.9C651.5 504.1 650.7 495 649.6 493C649.6 492.9 648 499.2 648 499.2C648 499.2 646.6 492.3 639.7 490.4C628.6 487.2 624.2 493.3 619.4 491.7C615.6 490.4 614.5 483.2 615.8 475.8Z" fill="black"/>
<path d="M632.5 498.7L640.1 500.9C641.1 501.2 642.2 500.6 642.4 499.5L642.7 498.4L631.4 495.2L631.1 496.3C630.9 497.4 631.5 498.4 632.5 498.7Z" fill="#FCD2B1"/>
<path d="M753 650.2C749.5 660.3 687.9 697.4 667.2 695.2L604.9 698.3C552 691.6 526.9 606.4 526.9 606.4C529 585 581.2 616 599.8 625.6C629.2 640.8 647.9 641.6 647.9 641.6C667.6 643.7 690.4 627.9 715.3 627.4C742.6 626.7 758.6 634.3 753 650.2Z" fill="#0B4870"/>
<path d="M617.6 640C617.6 639.9 617.6 639.9 617.6 640V637.2L724.7 635.2V638L724.4 638.5C723.1 640.9 720.6 641.3 717.8 641.4L624.6 643.2C621.8 643.3 619.3 642.9 617.9 640.6L617.6 640Z" fill="#D3D3D3"/>
<path d="M643.4 639.9L643.1 640.4C642.7 641 642.2 641.5 641.6 641.8L625.3 642.1C622.6 642.2 620.2 641.9 618.8 640L618.5 639.6L618.4 639.5V638.2L643.2 637.7L643.4 639.9ZM657.9 638.9L711.4 637.9V636L657.8 637.1L657.9 638.9ZM644 636.6L656.9 581.8C657.2 580.4 658.6 579.2 660 579.1L735.2 577.7C736.6 577.7 737.4 578.8 737.1 580.3L724.2 635.1L644 636.6Z" fill="#171C24"/>
<path d="M595.5 712.4C602.9 713.7 608.6 704.8 608.6 704.8L627.8 689.2L623.7 678.6L586.3 696C586.3 696 588 711.1 595.5 712.4Z" fill="#FCD2B1"/>
<path d="M608.5 704.2C608.5 704.2 608.5 705.1 607.1 709.2C605.7 713.3 603.9 714.7 602.1 715.3C594.9 717.5 589.8 716.4 572.6 719.8C555.4 723.2 550.2 720.6 545.2 712.4C540.2 704.2 545.4 697.7 553.8 697.1C565.9 696.2 572.7 697.6 579 696.6C585.6 695.6 586 694 589.9 691.5C593.5 689.2 596.9 703 593.5 706.2C590.4 709 606 709.4 608.5 704.2Z" fill="#FFB750"/>
<path d="M604.9 712.1C597.8 714.3 592.6 713.2 575.4 716.6C558.2 720 553 717.4 548 709.2C545.7 705.4 545.6 702 546.9 699.4C543.1 702.1 541.8 706.8 545.2 712.4C550.2 720.6 555.4 723.2 572.6 719.8C589.8 716.4 595 717.5 602.1 715.3C603.5 714.9 604.9 713.9 606.1 711.6C605.7 711.8 605.3 712 604.9 712.1Z" fill="white"/>
<path d="M608.5 704.5V704.3C608.5 704.4 608.4 704.5 608.3 704.6C608.4 704.5 608.5 704.5 608.5 704.5Z" fill="#E9D6B8"/>
<path d="M571.4 710.6C570.9 710.8 570.4 709.7 570.2 708.2C569.9 705.1 569.2 702.1 568.2 699C567.7 697.5 567.7 696.2 568.3 696C568.9 695.8 569.9 696.9 570.3 698.4C571.3 701.4 571.9 704.5 572.2 707.5C572.4 709 571.9 710.4 571.4 710.6ZM576.7 709.6C576.1 709.7 575.6 708.7 575.4 707.3C575.1 704.4 574.4 701.5 573.4 698.7C572.9 697.3 572.9 696.1 573.6 696C574.2 695.9 575.2 697 575.7 698.4C576.6 701.2 577.3 704.1 577.6 706.9C577.7 708.3 577.3 709.5 576.7 709.6ZM582.3 709.4C581.7 709.5 581.1 708.4 580.9 706.9C580.4 703.9 579.7 701 578.6 698C578.1 696.5 578.1 695.3 578.7 695.3C579.4 695.3 580.4 696.4 580.9 697.9C582 700.8 582.7 703.8 583.1 706.7C583.3 708.1 582.9 709.3 582.3 709.4Z" fill="white"/>
<path d="M596.8 686.9C596.8 686.9 728.5 630.8 736 630.7C761.4 630.5 755.6 657.1 742.7 669.7C727.5 684.5 611.9 711.6 611.9 711.6L596.8 686.9Z" fill="#0E538C"/>
<path d="M649 696.7L613 661.3L628.4 645.6L667.6 688.4L649 696.7Z" fill="#FCD2B1"/>
<path d="M656.4 668.9C656.4 668.9 564.9 582 558.8 579.4C537.9 570.6 525 594.5 525.7 602.8C526.7 613.5 619.6 700.5 619.6 700.5L656.4 668.9Z" fill="#0E538C"/>
<path d="M710.6 699.4C712.7 701.4 713.1 707.5 713.1 707.5C713.1 707.5 682.6 719.5 671.9 719.7C669.1 719.8 664.1 718.6 659.3 717.2C658.5 717 656.6 714.8 655.8 714.6C654.3 714.2 654 715.6 652.8 715.2C649.6 714.1 647.2 713.2 647.1 713C640.6 698.8 642.8 691.8 642.8 691.8C642.8 691.8 656.8 696 654.4 692.7C649.3 685.7 664 678.6 667.2 682.3C680.4 697.2 704.4 693.5 710.6 699.4Z" fill="#FFB750"/>
<path d="M712.3 702.4C702.9 706.3 683.2 714.2 679.3 714.5C663.2 715.7 652 709.8 644.5 706.3C645.2 708.3 646 710.6 647.1 713C647.2 713.2 649.5 714.1 652.8 715.2C654.1 715.6 654.4 714.1 655.8 714.6C656.6 714.8 658.4 717 659.3 717.2C664.1 718.6 669.1 719.7 671.9 719.7C682.6 719.5 713.1 707.5 713.1 707.5C713.1 707.5 713.1 704.7 712.3 702.4ZM690.8 693.2C691.1 693.8 689.9 694.4 688.2 694.8C684.7 695.5 681.3 696.6 677.9 698C676.2 698.7 674.7 698.9 674.5 698.3C674.3 697.7 675.4 696.6 677.1 695.9C680.4 694.5 683.9 693.5 687.3 692.8C688.9 692.3 690.5 692.6 690.8 693.2ZM683.9 690.7C684.2 691.3 683 692.1 681.3 692.6C677.9 693.6 674.6 695 671.3 696.7C669.7 697.5 668.2 697.8 668 697.2C667.8 696.6 668.9 695.3 670.5 694.5C673.7 692.9 677 691.5 680.4 690.6C682.1 689.9 683.7 690.1 683.9 690.7ZM677.3 688.5C677.5 689.1 676.4 690 674.8 690.6C671.5 691.9 668.3 693.5 665.2 695.4C663.7 696.4 662.3 696.7 662.1 696C661.9 695.4 662.9 694 664.5 693C667.6 691.1 670.8 689.5 674 688.3C675.6 687.8 677.1 687.9 677.3 688.5Z" fill="white"/>
</svg>
