<svg width="140" height="31" viewBox="0 0 140 31" fill="none" xmlns="http://www.w3.org/2000/svg">
<path d="M20.3855 13.8945L19.12 15.1164L17.2436 13.0655L17.9855 4.33818L19.7745 2.68L21.2145 4.33818L20.3855 13.8945ZM19.2073 2.06909L17.4618 3.72727H6.85818L5.37455 2.06909L7.12 0.454546H17.7236L19.2073 2.06909ZM19.2509 27.1164L17.4618 28.7745L16.0218 27.1164L16.7636 18.3891L18.9891 16.3382L20.08 17.6036L19.2509 27.1164ZM5.46182 13.0655L3.23636 15.1164L2.10182 13.8945L2.93091 4.33818L4.72 2.68L6.20364 4.33818L5.46182 13.0655ZM0.967273 27.1164L2.40727 28.7745L4.24 27.1164L4.98182 18.3891L3.10545 16.3382L1.79636 17.6036L0.967273 27.1164ZM4.45818 31L2.97455 29.3855L4.76364 27.7273H15.3673L16.8073 29.3855L15.0618 31H4.45818ZM43.9167 13.8945L42.6512 15.1164L40.7749 13.0655L41.5167 4.33818L43.3058 2.68L44.7458 4.33818L43.9167 13.8945ZM42.7385 2.06909L40.9931 3.72727H30.3894L27.4222 0.454546H41.2549L42.7385 2.06909ZM28.9931 13.0655L26.7676 15.1164L25.6331 13.8945L26.7676 1.06545L29.7349 4.33818L28.9931 13.0655ZM27.7276 27.7273L24.1494 31L25.3276 17.6036L26.6367 16.3382L28.5131 18.3891L27.7276 27.7273ZM40.4694 14.1127L41.9967 15.7273L40.164 17.3418H28.7749L27.3349 15.7273L29.0803 14.1127H40.4694ZM68.6261 0.454546L65.1352 3.72727H53.9207L52.437 2.06909L54.1825 0.454546H68.6261ZM52.5243 13.0655L50.2989 15.1164L49.1643 13.8945L49.9934 4.33818L51.7825 2.68L53.2661 4.33818L52.5243 13.0655ZM65.9643 31H51.5207L50.037 29.3855L51.8261 27.7273H63.0407L65.9643 31ZM51.3025 27.1164L49.4698 28.7745L48.0298 27.1164L48.8589 17.6036L50.168 16.3382L52.0443 18.3891L51.3025 27.1164ZM90.9792 13.8945L89.7137 15.1164L87.8374 13.0655L88.5792 4.33818L90.3683 2.68L91.8083 4.33818L90.9792 13.8945ZM89.801 2.06909L88.0556 3.72727H77.4519L75.9683 2.06909L77.7137 0.454546H88.3174L89.801 2.06909ZM89.8447 27.1164L88.0556 28.7745L86.6156 27.1164L87.3574 18.3891L89.5828 16.3382L90.6738 17.6036L89.8447 27.1164ZM76.0556 13.0655L73.8301 15.1164L72.6956 13.8945L73.5247 4.33818L75.3138 2.68L76.7974 4.33818L76.0556 13.0655ZM71.561 27.1164L73.001 28.7745L74.8337 27.1164L75.5756 18.3891L73.6992 16.3382L72.3901 17.6036L71.561 27.1164ZM75.0519 31L73.5683 29.3855L75.3574 27.7273H85.961L87.401 29.3855L85.6556 31H75.0519ZM113.376 27.1164L111.587 28.7745L110.147 27.1164L110.889 18.3891L113.114 16.3382L114.205 17.6036L113.376 27.1164ZM114.51 13.8945L113.245 15.1164L111.369 13.0655L112.11 4.33818L113.9 2.68L115.34 4.33818L114.51 13.8945ZM113.332 2.06909L111.587 3.72727H100.983L98.0159 0.454546H111.849L113.332 2.06909ZM110.932 29.3855L109.187 31H95.3541L98.8886 27.7273H109.492L110.932 29.3855ZM99.5868 13.0655L97.3614 15.1164L96.2268 13.8945L97.3614 1.06545L100.329 4.33818L99.5868 13.0655ZM98.365 27.1164L94.7868 30.3891L95.9214 17.6036L97.2305 16.3382L99.1068 18.3891L98.365 27.1164ZM139.22 0.454546L135.729 3.72727H124.514L121.547 0.454546H139.22ZM136.558 31H118.885L122.42 27.7273H133.634L136.558 31ZM122.638 18.3891L121.896 27.1164L118.318 30.3891L119.453 17.6036L120.762 16.3382L122.638 18.3891ZM119.758 13.8945L120.893 1.06545L123.86 4.33818L123.118 13.0655L120.893 15.1164L119.758 13.8945ZM134.594 14.1127L136.122 15.7273L134.289 17.3418H122.9L121.46 15.7273L123.205 14.1127H134.594Z" fill="#00FFD1"/>
</svg>
